#Comment line ignore any data following # character 
#Hierarchical Translation and Rotation (.htr) file 
[Header]	
#Header keywords are followed by a single value 
FileType HTR		#Single word string
DataType HTRS		#Translation followed by rotation and scale data
FileVersion 1		#integer
NumSegments 64		#integer
NumFrames 3		#integer
DataFrameRate 30		#integer, data frame rate in this file
EulerRotationOrder ZYX
CalibrationUnits mm
RotationUnits Degrees
GlobalAxisofGravity Y
BoneLengthAxis Y
ScaleFactor 1.00
[SegmentNames&Hierarchy]
#CHILD	PARENT
Pinger_Root GLOBAL
Pelvis Pinger_Root
L_Hip Pelvis
R_Hip Pelvis
Rear_Leg01 Pelvis
Spine1 Pelvis
L_Leg01 L_Hip
L_Leg02 L_Leg01
L_Leg03 L_Leg02
L_Foot L_Leg03
L_Toe1_01 L_Foot
L_Toe2_01 L_Foot
L_Toe3_01 L_Foot
planeAlignerLeft L_Foot
L_Toe1_02 L_Toe1_01
L_Toe1_03 L_Toe1_02
L_Toe2_02 L_Toe2_01
L_Toe2_03 L_Toe2_02
L_Toe3_02 L_Toe3_01
L_Toe3_03 L_Toe3_02
planeLockWeightLeft planeAlignerLeft
R_Leg01 R_Hip
R_Leg02 R_Leg01
R_Leg03 R_Leg02
R_Foot R_Leg03
planeAlignerRight R_Foot
R_Toe1_01 R_Foot
R_Toe2_01 R_Foot
R_Toe3_01 R_Foot
planeLockWeightRight planeAlignerRight
R_Toe1_02 R_Toe1_01
R_Toe1_03 R_Toe1_02
R_Toe2_02 R_Toe2_01
R_Toe2_03 R_Toe2_02
R_Toe3_02 R_Toe3_01
R_Toe3_03 R_Toe3_02
Rear_Leg02 Rear_Leg01
Rear_Leg03 Rear_Leg02
Rear_Leg04 Rear_Leg03
Rear_Foot Rear_Leg04
planeAlignerCenter Rear_Foot
Rear_Toe1_01 Rear_Foot
Rear_Toe2_01 Rear_Foot
Rear_Toe3_01 Rear_Foot
planeLockWeightCenter planeAlignerCenter
Rear_Toe1_02 Rear_Toe1_01
Rear_Toe1_03 Rear_Toe1_02
Rear_Toe2_02 Rear_Toe2_01
Rear_Toe2_03 Rear_Toe2_02
Rear_Toe3_02 Rear_Toe3_01
Rear_Toe3_03 Rear_Toe3_02
Back_Bone Spine1
Head Spine1
Motor_Bone Back_Bone
Ping_Mechanism Back_Bone
BN_LookIK Head
bottomMouth Head
L_Mouth01 Head
L_mouthFront Head
mouthGun Head
R_Mouth01 Head
R_mouthFront Head
TopMouth Head
weapon_bone Head
[BasePosition]
#SegmentName Tx, Ty, Tz, Rx, Ry, Rz, BoneLength
Pinger_Root 0.000000 0.000000 0.000000 -90.000000 0.000000 0.000000 10.000000 
Pelvis 0.000000 0.000000 0.000000 0.000000 0.000000 0.000000 10.000000 
L_Hip 0.000000 0.000000 0.000000 0.000000 0.000000 0.000000 10.000000 
R_Hip 0.000000 0.000000 0.000000 0.000000 0.000000 0.000000 10.000000 
Rear_Leg01 0.000000 0.000000 0.000000 0.000000 0.000000 0.000000 10.000000 
Spine1 0.000000 0.000000 0.000000 0.000000 0.000000 0.000000 10.000000 
L_Leg01 0.000000 0.000000 0.000000 0.000000 0.000000 0.000000 10.000000 
L_Leg02 0.000000 0.000000 0.000000 0.000000 0.000000 0.000000 10.000000 
L_Leg03 0.000000 0.000000 0.000000 0.000000 0.000000 0.000000 10.000000 
L_Foot 0.000000 0.000000 0.000000 0.000000 0.000000 0.000000 10.000000 
L_Toe1_01 0.000000 0.000000 0.000000 0.000000 0.000000 0.000000 10.000000 
L_Toe2_01 0.000000 0.000000 0.000000 0.000000 0.000000 0.000000 10.000000 
L_Toe3_01 0.000000 0.000000 0.000000 0.000000 0.000000 0.000000 10.000000 
planeAlignerLeft 0.000000 0.000000 0.000000 0.000000 0.000000 0.000000 10.000000 
L_Toe1_02 0.000000 0.000000 0.000000 0.000000 0.000000 0.000000 10.000000 
L_Toe1_03 0.000000 0.000000 0.000000 0.000000 0.000000 0.000000 10.000000 
L_Toe2_02 0.000000 0.000000 0.000000 0.000000 0.000000 0.000000 10.000000 
L_Toe2_03 0.000000 0.000000 0.000000 0.000000 0.000000 0.000000 10.000000 
L_Toe3_02 0.000000 0.000000 0.000000 0.000000 0.000000 0.000000 10.000000 
L_Toe3_03 0.000000 0.000000 0.000000 0.000000 0.000000 0.000000 10.000000 
planeLockWeightLeft 0.000000 0.000000 0.000000 0.000000 0.000000 0.000000 10.000000 
R_Leg01 0.000000 0.000000 0.000000 0.000000 0.000000 0.000000 10.000000 
R_Leg02 0.000000 0.000000 0.000000 0.000000 0.000000 0.000000 10.000000 
R_Leg03 0.000000 0.000000 0.000000 0.000000 0.000000 0.000000 10.000000 
R_Foot 0.000000 0.000000 0.000000 0.000000 0.000000 0.000000 10.000000 
planeAlignerRight 0.000000 0.000000 0.000000 0.000000 0.000000 0.000000 10.000000 
R_Toe1_01 0.000000 0.000000 0.000000 0.000000 0.000000 0.000000 10.000000 
R_Toe2_01 0.000000 0.000000 0.000000 0.000000 0.000000 0.000000 10.000000 
R_Toe3_01 0.000000 0.000000 0.000000 0.000000 0.000000 0.000000 10.000000 
planeLockWeightRight 0.000000 0.000000 0.000000 0.000000 0.000000 0.000000 10.000000 
R_Toe1_02 0.000000 0.000000 0.000000 0.000000 0.000000 0.000000 10.000000 
R_Toe1_03 0.000000 0.000000 0.000000 0.000000 0.000000 0.000000 10.000000 
R_Toe2_02 0.000000 0.000000 0.000000 0.000000 0.000000 0.000000 10.000000 
R_Toe2_03 0.000000 0.000000 0.000000 0.000000 0.000000 0.000000 10.000000 
R_Toe3_02 0.000000 0.000000 0.000000 0.000000 0.000000 0.000000 10.000000 
R_Toe3_03 0.000000 0.000000 0.000000 0.000000 0.000000 0.000000 10.000000 
Rear_Leg02 0.000000 0.000000 0.000000 0.000000 0.000000 0.000000 10.000000 
Rear_Leg03 0.000000 0.000000 0.000000 0.000000 0.000000 0.000000 10.000000 
Rear_Leg04 0.000000 0.000000 0.000000 0.000000 0.000000 0.000000 10.000000 
Rear_Foot 0.000000 0.000000 0.000000 0.000000 0.000000 0.000000 10.000000 
planeAlignerCenter 0.000000 0.000000 0.000000 0.000000 0.000000 0.000000 10.000000 
Rear_Toe1_01 0.000000 0.000000 0.000000 0.000000 0.000000 0.000000 10.000000 
Rear_Toe2_01 0.000000 0.000000 0.000000 0.000000 0.000000 0.000000 10.000000 
Rear_Toe3_01 0.000000 0.000000 0.000000 0.000000 0.000000 0.000000 10.000000 
planeLockWeightCenter 0.000000 0.000000 0.000000 0.000000 0.000000 0.000000 10.000000 
Rear_Toe1_02 0.000000 0.000000 0.000000 0.000000 0.000000 0.000000 10.000000 
Rear_Toe1_03 0.000000 0.000000 0.000000 0.000000 0.000000 0.000000 10.000000 
Rear_Toe2_02 0.000000 0.000000 0.000000 0.000000 0.000000 0.000000 10.000000 
Rear_Toe2_03 0.000000 0.000000 0.000000 0.000000 0.000000 0.000000 10.000000 
Rear_Toe3_02 0.000000 0.000000 0.000000 0.000000 0.000000 0.000000 10.000000 
Rear_Toe3_03 0.000000 0.000000 0.000000 0.000000 0.000000 0.000000 10.000000 
Back_Bone 0.000000 0.000000 0.000000 0.000000 0.000000 0.000000 10.000000 
Head 0.000000 0.000000 0.000000 0.000000 0.000000 0.000000 10.000000 
Motor_Bone 0.000000 0.000000 0.000000 0.000000 0.000000 0.000000 10.000000 
Ping_Mechanism 0.000000 0.000000 0.000000 0.000000 0.000000 0.000000 10.000000 
BN_LookIK 0.000000 0.000000 0.000000 0.000000 0.000000 0.000000 10.000000 
bottomMouth 0.000000 0.000000 0.000000 0.000000 0.000000 0.000000 10.000000 
L_Mouth01 0.000000 0.000000 0.000000 0.000000 0.000000 0.000000 10.000000 
L_mouthFront 0.000000 0.000000 0.000000 0.000000 0.000000 0.000000 10.000000 
mouthGun 0.000000 0.000000 0.000000 0.000000 0.000000 0.000000 10.000000 
R_Mouth01 0.000000 0.000000 0.000000 0.000000 0.000000 0.000000 10.000000 
R_mouthFront 0.000000 0.000000 0.000000 0.000000 0.000000 0.000000 10.000000 
TopMouth 0.000000 0.000000 0.000000 0.000000 0.000000 0.000000 10.000000 
weapon_bone 0.000000 0.000000 0.000000 0.000000 0.000000 0.000000 10.000000 
#Beginning of Data. Separated by tabs
#Fr	Tx	Ty	Tz	Rx	Ry	Rz	SF
[Pinger_Root]
8 0.000000 0.000000 0.000000 -0.000075 -0.000000 -0.000020 0.000000
9 0.000000 0.000000 0.000000 -0.000075 -0.000000 -0.000020 0.000000
10 0.000000 0.000000 0.000000 -0.000075 -0.000000 -0.000020 0.000000
[Pelvis]
8 -135.012817 2017.186646 4749.646484 -109.141144 -76.849304 93.054634 5162.016602
9 -167.077057 2057.123779 4673.219727 -116.033127 -74.760880 97.779495 5108.684570
10 -194.618088 2096.627930 4588.152832 -124.846352 -71.624199 104.624405 5048.254395
[L_Hip]
8 5.766392 125.831482 872.656799 160.158691 -45.484905 122.312202 881.701050
9 5.766392 125.831482 872.656799 159.177963 -46.166889 123.113518 881.701050
10 5.766392 125.831482 872.656799 157.266708 -47.404057 124.680817 881.701050
[R_Hip]
8 5.765438 125.836372 -872.654907 38.087841 49.812698 125.703735 881.699829
9 5.765438 125.836372 -872.654907 32.686768 53.144047 117.987137 881.699829
10 5.765438 125.836372 -872.654907 17.006439 59.059021 97.460487 881.699829
[Rear_Leg01]
8 -192.298416 -925.602966 -0.001907 165.094315 12.390107 -151.005356 945.367432
9 -192.298416 -925.602966 -0.001907 162.608047 12.624005 -152.730530 945.367432
10 -192.298416 -925.602966 -0.001907 159.509583 11.423466 -154.756836 945.367432
[Spine1]
8 290.604584 5.007505 0.000477 15.480400 -8.393872 23.181946 290.647736
9 290.604584 5.007505 0.000477 15.095411 -7.639896 23.329746 290.647736
10 290.604584 5.007505 0.000477 15.588312 -5.309987 22.601549 290.647736
[L_Leg01]
8 761.932007 -0.002384 -0.069261 42.687374 5.442573 -30.125509 761.932068
9 761.932007 -0.002384 -0.069261 44.256607 8.406426 -27.147543 761.932068
10 761.932007 -0.002384 -0.069261 45.367886 15.712494 -25.773771 761.932068
[L_Leg02]
8 1441.140503 -0.000954 -0.000715 -0.665608 0.006027 -82.137932 1441.140503
9 1441.140503 -0.000954 -0.000715 0.495246 -0.138688 -85.709610 1441.140503
10 1441.140503 -0.000954 -0.000715 1.905150 -0.130151 -81.204239 1441.140503
[L_Leg03]
8 1686.963989 -0.000715 -0.000954 -0.014065 0.006595 114.229538 1686.963989
9 1686.963989 -0.000715 -0.000954 -0.029876 0.014857 118.668678 1686.963989
10 1686.963989 -0.000715 -0.000954 -0.049297 0.022196 123.614922 1686.963989
[L_Foot]
8 3041.570068 -30.715107 11.297464 -15.521180 35.692974 40.034641 3041.746094
9 3041.570068 -30.715107 11.297464 -17.220505 37.944317 38.986015 3041.746094
10 3041.570068 -30.715107 11.297464 -19.200476 39.344143 34.447701 3041.746094
[L_Toe1_01]
8 -188.216690 -224.732346 -21.137953 94.167709 -6.994665 -179.850494 293.899567
9 -188.216690 -224.732346 -21.137953 94.172615 -7.114413 -179.908600 293.899567
10 -188.216690 -224.732346 -21.137953 94.177635 -7.234157 -179.966751 293.899567
[L_Toe2_01]
8 200.746536 -219.926590 148.838394 -98.096504 -34.470116 -34.569748 332.896027
9 200.746536 -219.926590 148.838394 -98.144379 -35.043602 -34.577282 332.896027
10 200.746536 -219.926590 148.838394 -98.192490 -35.617085 -34.584263 332.896027
[L_Toe3_01]
8 188.832520 -219.859131 -191.078659 -97.186310 25.541550 -61.032017 347.140900
9 188.832520 -219.859131 -191.078659 -97.070869 25.432989 -61.132175 347.140900
10 188.832520 -219.859131 -191.078659 -96.955284 25.324594 -61.232464 347.140900
[planeAlignerLeft]
8 0.812531 -811.448792 -0.314951 0.000000 -90.000000 -90.001900 811.449280
9 0.812531 -811.448792 -0.314951 0.000000 -90.000000 -90.001900 811.449280
10 0.812531 -811.448792 -0.314951 0.000000 -90.000000 -90.001900 811.449280
[L_Toe1_02]
8 413.761139 0.000477 0.000000 0.001661 0.070774 0.001661 413.761139
9 413.761139 0.000477 0.000000 0.001661 0.070650 0.001661 413.761139
10 413.761139 0.000477 0.000000 0.001661 0.070526 0.001661 413.761139
[L_Toe1_03]
8 464.317322 0.000358 -0.000089 0.001673 -0.448396 -0.003292 464.317322
9 464.317322 0.000358 -0.000089 0.001673 -0.448396 -0.003292 464.317322
10 464.317322 0.000358 -0.000089 0.001673 -0.448396 -0.003292 464.317322
[L_Toe2_02]
8 342.235809 -0.000477 0.000238 0.004684 -81.201920 0.004684 342.235809
9 342.235809 -0.000477 0.000238 0.004684 -81.202347 0.004684 342.235809
10 342.235809 -0.000477 0.000238 0.004684 -81.202873 0.004684 342.235809
[L_Toe2_03]
8 420.210846 -0.000715 0.000000 179.993179 44.473534 -179.999237 420.210846
9 420.210846 -0.000715 0.000000 179.993195 44.121548 -179.999222 420.210846
10 420.210846 -0.000715 0.000000 179.993210 43.769566 -179.999191 420.210846
[L_Toe3_02]
8 329.270111 0.000954 0.000000 0.004675 -84.744507 0.004675 329.270111
9 329.270111 0.000954 0.000000 0.004675 -84.728645 0.004675 329.270111
10 329.270111 0.000954 0.000000 0.004675 -84.712761 0.004675 329.270111
[L_Toe3_03]
8 439.137451 -0.001907 0.000954 179.993423 38.465439 -179.998825 439.137451
9 439.137451 -0.001907 0.000954 179.993454 37.694626 -179.998764 439.137451
10 439.137451 -0.001907 0.000954 179.993469 36.923779 -179.998718 439.137451
[planeLockWeightLeft]
8 -0.000954 0.000238 -0.000305 -0.011826 -0.004376 0.005620 0.001029
9 -0.000954 0.000238 -0.000305 -0.011826 -0.004376 0.005620 0.001029
10 -0.000954 0.000238 -0.000305 -0.011826 -0.004376 0.005620 0.001029
[R_Leg01]
8 761.455627 -0.001907 -0.000358 146.092896 11.604592 57.083942 761.455688
9 761.455627 -0.001907 -0.000358 146.331757 12.529119 69.463287 761.455688
10 761.455627 -0.001907 -0.000358 147.267792 17.890600 97.227440 761.455688
[R_Leg02]
8 1441.140625 0.000000 -0.000238 0.470187 0.117490 -54.804695 1441.140625
9 1441.140625 0.000000 -0.000238 0.643783 0.081701 -42.394001 1441.140625
10 1441.140625 0.000000 -0.000238 1.091694 -0.180148 -12.727313 1441.140625
[R_Leg03]
8 1686.963989 0.000954 0.001431 0.011858 -0.006034 113.462250 1686.963989
9 1686.963989 0.000954 0.001431 -0.004580 0.000779 109.312859 1686.963989
10 1686.963989 0.000954 0.001431 -0.056580 0.013034 95.127968 1686.963989
[R_Foot]
8 3041.560059 -30.531288 -11.204481 4.105520 4.487591 47.659966 3041.734131
9 3041.560059 -30.531288 -11.204481 3.864321 5.906890 45.641521 3041.734131
10 3041.560059 -30.531288 -11.204481 3.372918 6.907816 44.745213 3041.734131
[planeAlignerRight]
8 -0.635147 -812.270569 -0.364304 0.000000 -89.960434 -90.005180 812.270874
9 -0.635147 -812.270569 -0.364304 0.000000 -89.960434 -90.005180 812.270874
10 -0.635147 -812.270569 -0.364304 0.000000 -89.960434 -90.005180 812.270874
[R_Toe1_01]
8 -188.383347 -224.864899 21.052242 77.475250 2.451285 -171.691315 294.101532
9 -188.383347 -224.864899 21.052242 77.480461 2.477718 -171.640457 294.101532
10 -188.383347 -224.864899 21.052242 77.485703 2.504146 -171.589600 294.101532
[R_Toe2_01]
8 200.637817 -220.002121 -148.787384 -87.033302 41.388165 -47.517647 332.857574
9 200.637817 -220.002121 -148.787384 -87.025475 41.471367 -47.492695 332.857574
10 200.637817 -220.002121 -148.787384 -87.017570 41.554546 -47.467674 332.857574
[R_Toe3_01]
8 188.606735 -220.092957 191.126343 -74.676620 -14.601071 -63.955486 347.192566
9 188.606735 -220.092957 191.126343 -74.686378 -14.615577 -63.954861 347.192566
10 188.606735 -220.092957 191.126343 -74.696129 -14.630084 -63.954239 347.192566
[planeLockWeightRight]
8 -0.000477 0.000000 0.000000 -0.011823 -0.004379 -0.000027 0.000477
9 -0.000477 0.000000 0.000000 -0.011823 -0.004379 -0.000027 0.000477
10 -0.000477 0.000000 0.000000 -0.011823 -0.004379 -0.000027 0.000477
[R_Toe1_02]
8 413.762085 0.000477 -0.000119 0.001407 -23.082314 0.001407 413.762085
9 413.762085 0.000477 -0.000119 0.001410 -22.630901 0.001410 413.762085
10 413.762085 0.000477 -0.000119 0.001414 -22.179487 0.001414 413.762085
[R_Toe1_03]
8 464.317810 0.000000 0.001088 0.000793 32.735474 -0.003191 464.317810
9 464.317810 0.000000 0.001088 0.000836 31.192101 -0.003177 464.317810
10 464.317810 0.000000 0.001088 0.000867 30.094709 -0.003169 464.317810
[R_Toe2_02]
8 342.234741 -0.000954 0.000238 -0.002335 -78.601433 -0.002335 342.234741
9 342.234741 -0.000954 0.000238 -0.002335 -78.618050 -0.002335 342.234741
10 342.234741 -0.000954 0.000238 -0.002335 -78.634689 -0.002335 342.234741
[R_Toe2_03]
8 420.210846 0.000715 -0.000268 -179.994522 72.173378 -179.998062 420.210846
9 420.210846 0.000715 -0.000268 -179.994583 71.864952 -179.998123 420.210846
10 420.210846 0.000715 -0.000268 -179.994644 71.556465 -179.998184 420.210846
[R_Toe3_02]
8 329.270355 -0.000477 -0.000954 0.001175 -83.875198 0.001175 329.270355
9 329.270355 -0.000477 -0.000954 0.001175 -83.957268 0.001175 329.270355
10 329.270355 -0.000477 -0.000954 0.001175 -84.039253 0.001175 329.270355
[R_Toe3_03]
8 439.137939 0.000238 0.001431 -179.995087 58.431873 -179.987823 439.137939
9 439.137939 0.000238 0.001431 -179.995178 58.106571 -179.987900 439.137939
10 439.137939 0.000238 0.001431 -179.995270 57.781250 -179.987991 439.137939
[Rear_Leg02]
8 1162.777710 -0.029802 0.005960 14.933128 0.433583 -5.919848 1162.777710
9 1162.777710 -0.029802 0.005960 17.374399 0.410415 -5.686604 1162.777710
10 1162.777710 -0.029802 0.005960 19.280628 0.403141 -5.641043 1162.777710
[Rear_Leg03]
8 607.192505 -0.013351 -0.073195 -0.008083 0.006784 2.519217 607.192505
9 607.192505 -0.013351 -0.073195 -0.008095 0.006769 2.311455 607.192505
10 607.192505 -0.013351 -0.073195 -0.008108 0.006755 2.103693 607.192505
[Rear_Leg04]
8 995.874512 -0.020504 -0.011921 -0.018125 0.001604 -0.349488 995.874573
9 995.874512 -0.020504 -0.011921 -0.018127 0.001585 -0.470657 995.874573
10 995.874512 -0.020504 -0.011921 -0.018129 0.001566 -0.591825 995.874573
[Rear_Foot]
8 3096.176270 -0.067472 -0.041425 45.047470 72.946312 -99.407333 3096.176270
9 3096.176270 -0.067472 -0.041425 44.069897 69.952171 -99.720001 3096.176270
10 3096.176270 -0.067472 -0.041425 43.092358 67.533485 -100.041840 3096.176270
[planeAlignerCenter]
8 0.350077 0.966311 -838.790894 0.000009 0.000003 -179.999985 838.791565
9 0.350077 0.966311 -838.790894 0.000009 0.000003 -179.999985 838.791565
10 0.350077 0.966311 -838.790894 0.000009 0.000003 -179.999985 838.791565
[Rear_Toe1_01]
8 0.653352 83.966492 -371.173737 -25.847759 36.836414 83.022865 380.553192
9 0.653352 83.966492 -371.173737 -29.556835 37.125412 82.764977 380.553192
10 0.653352 83.966492 -371.173737 -32.040241 37.183132 82.547081 380.553192
[Rear_Toe2_01]
8 178.200760 -294.826019 -362.060547 -6.848702 27.414940 -62.341919 499.765686
9 178.200760 -294.826019 -362.060547 -6.801430 27.873636 -62.181129 499.765686
10 178.200760 -294.826019 -362.060547 -6.778607 28.073143 -62.044769 499.765686
[Rear_Toe3_01]
8 -153.359680 -308.780914 -362.060852 4.732705 30.296577 -104.924881 499.952881
9 -153.359680 -308.780914 -362.060852 4.742626 30.511251 -104.942268 499.952881
10 -153.359680 -308.780914 -362.060852 4.752493 30.725906 -104.959633 499.952881
[planeLockWeightCenter]
8 -0.000062 0.000238 0.000000 -0.011814 -0.004373 -0.000015 0.000246
9 -0.000062 0.000238 0.000000 -0.011814 -0.004373 -0.000015 0.000246
10 -0.000062 0.000238 0.000000 -0.011814 -0.004373 -0.000015 0.000246
[Rear_Toe1_02]
8 379.707825 0.194073 0.000477 -0.000652 -33.521477 -0.000652 379.707855
9 379.707825 0.194073 0.000477 0.000340 -33.552464 0.000340 379.707855
10 379.707825 0.194073 0.000477 0.001332 -33.583454 0.001332 379.707855
[Rear_Toe1_03]
8 500.129700 0.165701 0.000119 0.007918 72.952530 0.007918 500.129761
9 500.129700 0.165701 0.000119 0.007326 71.562569 0.007326 500.129761
10 500.129700 0.165701 0.000119 0.007036 70.796272 0.007036 500.129761
[Rear_Toe2_02]
8 340.494507 0.000238 -0.000954 0.001249 -50.046932 0.001249 340.494507
9 340.494507 0.000238 -0.000954 0.001245 -51.047794 0.001245 340.494507
10 340.494507 0.000238 -0.000954 0.001242 -51.706364 0.001242 340.494507
[Rear_Toe2_03]
8 433.103577 0.000000 0.000238 -0.003379 44.388046 0.000414 433.103546
9 433.103577 0.000000 0.000238 -0.003406 45.469120 0.000372 433.103546
10 433.103577 0.000000 0.000238 0.003148 46.226257 0.003148 433.103546
[Rear_Toe3_02]
8 340.494141 -0.000358 -0.000477 0.007106 -63.740276 -0.008287 340.494171
9 340.494141 -0.000358 -0.000477 0.007357 -64.580788 -0.008536 340.494171
10 340.494141 -0.000358 -0.000477 0.007565 -65.237228 -0.008742 340.494171
[Rear_Toe3_03]
8 433.103577 0.001431 -0.000238 -0.000490 61.003834 -0.004102 433.103546
9 433.103577 0.001431 -0.000238 -0.000589 62.172588 -0.004191 433.103546
10 433.103577 0.001431 -0.000238 -0.000673 63.093086 -0.004268 433.103546
[Back_Bone]
8 1312.175781 -701.934692 0.000954 -2.193313 5.119594 -48.226555 1488.125488
9 1312.175781 -701.934692 0.000954 4.082025 4.610689 -48.727196 1488.125488
10 1312.175781 -701.934692 0.000954 11.109824 3.258973 -50.223747 1488.125488
[Head]
8 1406.159424 809.709290 0.001431 0.911141 -1.320883 -24.125917 1622.625488
9 1406.159424 809.709290 0.001431 0.805534 -1.385100 -21.662424 1622.625488
10 1406.159424 809.709290 0.001431 0.569831 -1.504472 -15.065707 1622.625488
[Motor_Bone]
8 1158.364380 -417.834747 0.000477 8.528772 28.366497 -49.788116 1231.419434
9 1158.364380 -417.834747 0.000477 6.160089 26.903557 -51.779011 1231.419434
10 1158.364380 -417.834747 0.000477 1.762916 23.178350 -56.233860 1231.419434
[Ping_Mechanism]
8 1280.912354 -170.011948 -0.920793 0.000103 -0.000053 82.120995 1292.146118
9 1266.728516 -303.686829 -3.457136 0.000103 -0.000053 82.120995 1302.627686
10 1258.694946 -420.975037 -9.418868 0.000103 -0.000053 82.120995 1327.260986
[BN_LookIK]
8 193.241119 1380.371704 -0.002861 0.000000 89.965736 -31.038179 1393.832153
9 193.241119 1380.371704 -0.002861 0.000000 89.965736 -31.038179 1393.832153
10 193.241119 1380.371704 -0.002861 0.000000 89.965736 -31.038179 1393.832153
[bottomMouth]
8 -435.092926 615.759399 -0.000954 -0.000022 0.000016 73.527184 753.966492
9 -435.092926 615.759399 -0.000954 -0.000022 0.000016 73.527184 753.966492
10 -435.092926 615.759399 -0.000954 -0.000022 0.000016 73.527184 753.966492
[L_Mouth01]
8 554.440979 7.658243 838.222046 150.204178 23.759130 109.605339 1005.027161
9 554.440979 7.658243 838.222046 150.204178 23.759130 109.605339 1005.027161
10 554.440979 7.658243 838.222046 150.204178 23.759130 109.605339 1005.027161
[L_mouthFront]
8 551.629089 934.514771 339.150421 0.000081 2.804060 79.119301 1136.941284
9 551.629089 934.514771 339.150421 0.000081 2.804060 79.119301 1136.941284
10 551.629089 934.514771 339.150421 0.000081 2.804060 79.119301 1136.941284
[mouthGun]
8 55.332661 1627.420898 0.000000 0.000023 0.000009 -11.038128 1628.361328
9 55.332661 1627.420898 0.000000 0.000023 0.000009 -11.038128 1628.361328
10 55.332661 1627.420898 0.000000 0.000023 0.000009 -11.038128 1628.361328
[R_Mouth01]
8 554.442383 7.659197 -838.223938 29.795891 -23.759109 109.605331 1005.029541
9 554.442383 7.659197 -838.223938 29.795891 -23.759109 109.605331 1005.029541
10 554.442383 7.659197 -838.223938 29.795891 -23.759109 109.605331 1005.029541
[R_mouthFront]
8 551.629089 934.514282 -339.151367 0.000029 -2.803930 79.119133 1136.941162
9 551.629089 934.514282 -339.151367 0.000029 -2.803930 79.119133 1136.941162
10 551.629089 934.514282 -339.151367 0.000029 -2.803930 79.119133 1136.941162
[TopMouth]
8 461.269867 -56.106091 -0.008583 -0.000059 -0.000268 92.025169 464.669525
9 461.269867 -56.106091 -0.008583 -0.000059 -0.000268 92.025169 464.669525
10 461.269867 -56.106091 -0.008583 -0.000059 -0.000268 92.025169 464.669525
[weapon_bone]
8 -987.239868 1448.372803 0.001431 0.000000 89.965736 -31.038221 1752.833740
9 -987.239868 1448.372803 0.001431 0.000000 89.965736 -31.038221 1752.833740
10 -987.239868 1448.372803 0.001431 0.000000 89.965736 -31.038221 1752.833740
